<mxfile host="app.diagrams.net" modified="2022-04-30T00:01:20.662Z" agent="5.0 (Windows NT 10.0; Win64; x64) AppleWebKit/537.36 (KHTML, like Gecko) Chrome/100.0.4896.127 Safari/537.36" etag="qjZkiPq3u56SjCZ8UfKl" version="17.5.0" type="github">
  <diagram id="uZeNglCQjQC6bIIPNlKZ" name="Page-1">
    <mxGraphModel dx="421" dy="648" grid="1" gridSize="10" guides="1" tooltips="1" connect="1" arrows="1" fold="1" page="1" pageScale="1" pageWidth="827" pageHeight="1169" math="0" shadow="0">
      <root>
        <mxCell id="0" />
        <mxCell id="1" parent="0" />
        <mxCell id="cGBFg0cVZ0IJLUhfHCt4-1" value="Absolute BJJ Tournament Tracker:&lt;br&gt;MVP - desktop form&amp;nbsp;&lt;br&gt;&lt;div style=&quot;text-align: left&quot;&gt;&lt;ul&gt;&lt;li&gt;C#&lt;/li&gt;&lt;li&gt;SQL&lt;/li&gt;&lt;/ul&gt;-------------------------------------------------------------------&lt;ul&gt;&lt;li&gt;&lt;span&gt;Single level access - admin (players would sign up via email or w/e)&lt;/span&gt;&lt;/li&gt;&lt;ul&gt;&lt;li&gt;&lt;span&gt;email w/in system?&lt;/span&gt;&lt;/li&gt;&lt;/ul&gt;&lt;li&gt;&lt;span&gt;Dynamic variable bracket&lt;/span&gt;&lt;/li&gt;&lt;li&gt;&lt;span&gt;One division&lt;/span&gt;&lt;br&gt;&lt;/li&gt;&lt;li&gt;&lt;span&gt;Randomize initial matches&lt;/span&gt;&lt;br&gt;&lt;/li&gt;&lt;li&gt;&lt;span&gt;Adds bye for odd number bracket&lt;/span&gt;&lt;/li&gt;&lt;li&gt;&lt;span&gt;Each round fully complete before continuing&lt;/span&gt;&lt;/li&gt;&lt;li&gt;Tracking matches&lt;/li&gt;&lt;ul&gt;&lt;li&gt;Track matches&amp;nbsp;&amp;nbsp;&lt;/li&gt;&lt;ul&gt;&lt;li&gt;time, win conditions&lt;/li&gt;&lt;/ul&gt;&lt;li&gt;Winners advance&lt;/li&gt;&lt;li&gt;Single elimination&lt;/li&gt;&lt;/ul&gt;&lt;li&gt;Optional fees &amp;amp; prizes&lt;/li&gt;&lt;ul&gt;&lt;li&gt;Prize not to exceed 50% of total fees&lt;/li&gt;&lt;li&gt;v1 - for 16 person bracket 1st, 2nd, &amp;amp; 3rd place prize&lt;/li&gt;&lt;/ul&gt;&lt;li&gt;&lt;br&gt;&lt;/li&gt;&lt;/ul&gt;&lt;div&gt;-------------------------------------------------------------------&lt;/div&gt;&lt;div&gt;Visual bracket display:&lt;/div&gt;&lt;div&gt;&lt;ul&gt;&lt;li&gt;Player name &amp;amp; affiliated team&lt;/li&gt;&lt;li&gt;Match stats after complete&lt;/li&gt;&lt;li&gt;&lt;br&gt;&lt;/li&gt;&lt;/ul&gt;&lt;/div&gt;&lt;div&gt;-------------------------------------------------------------------&lt;br&gt;&lt;/div&gt;&lt;div&gt;Tournament overview:&lt;/div&gt;&lt;div&gt;&lt;ul&gt;&lt;li&gt;Default - lists each match with players &amp;amp; match stats&lt;/li&gt;&lt;li&gt;Player is clickable to display their performance in this tournament&lt;/li&gt;&lt;li&gt;&lt;br&gt;&lt;/li&gt;&lt;/ul&gt;&lt;/div&gt;&lt;/div&gt;" style="rounded=0;whiteSpace=wrap;html=1;verticalAlign=top;" parent="1" vertex="1">
          <mxGeometry x="40" y="40" width="450" height="560" as="geometry" />
        </mxCell>
        <mxCell id="cGBFg0cVZ0IJLUhfHCt4-3" value="BJJ Tournament Tracker:&lt;br&gt;Stretch - web, mobile&lt;br&gt;&lt;div style=&quot;text-align: left&quot;&gt;&lt;div&gt;&lt;ul&gt;&lt;li&gt;2 access levels&lt;/li&gt;&lt;ul&gt;&lt;li&gt;Players&lt;/li&gt;&lt;ul&gt;&lt;li&gt;sign up w/ form&lt;/li&gt;&lt;li&gt;data add them to bracket based on&amp;nbsp;&lt;/li&gt;&lt;ul&gt;&lt;li&gt;gender, weight, skill &amp;amp; age&lt;br&gt;&lt;/li&gt;&lt;li&gt;option to optimize bracket merge skill/ weight/ age&lt;/li&gt;&lt;li&gt;this account will be linked with match stats&lt;/li&gt;&lt;ul&gt;&lt;li&gt;avg. match time&lt;/li&gt;&lt;li&gt;total wins, losses&lt;/li&gt;&lt;li&gt;% wins, losses&lt;/li&gt;&lt;li&gt;pts v subs&lt;/li&gt;&lt;/ul&gt;&lt;/ul&gt;&lt;/ul&gt;&lt;li&gt;Admin - Specific to Org&lt;/li&gt;&lt;ul&gt;&lt;li&gt;allowed to remove player - if creates odd bracket use bye; if created even -recreate bracket&lt;/li&gt;&lt;li&gt;logs match stats&lt;/li&gt;&lt;/ul&gt;&lt;/ul&gt;&lt;li&gt;Incorporate dynamic schedule&amp;nbsp;&lt;/li&gt;&lt;ul&gt;&lt;li&gt;real time logged match results &amp;amp; est time (accounts for match time, allowed break time between players matches&lt;/li&gt;&lt;li&gt;includes multiple matches at a time (8 mats)&lt;/li&gt;&lt;/ul&gt;&lt;li&gt;Multiple divisions by gender, weight, skill &amp;amp; age&lt;/li&gt;&lt;li&gt;Bracket created as players sign up or possibly randomized&lt;/li&gt;&lt;li&gt;If &amp;lt;4 players in bracket merge if possible? or round robin?&lt;/li&gt;&lt;li&gt;Shares info among organizations to build player stats, network outreach for upcoming events, etc.&lt;/li&gt;&lt;/ul&gt;&lt;/div&gt;&lt;div&gt;&lt;br&gt;&lt;/div&gt;&lt;/div&gt;" style="rounded=0;whiteSpace=wrap;html=1;verticalAlign=top;" parent="1" vertex="1">
          <mxGeometry x="500" y="40" width="450" height="560" as="geometry" />
        </mxCell>
      </root>
    </mxGraphModel>
  </diagram>
</mxfile>
